# xmcd CD database file
#
# Track frame offsets:
#	150
#	16454
#	33772
#	65228
#	82915
#	96493
#
# Disc length: 1727 seconds
#
# Revision: 0
# Processed by: cddbd v1.5.2PL0 Copyright (c) Steve Scherf et al.
# Submitted via: CDex 1.70beta2
#
DISCID=4606bd06
DTITLE=Virgil and The Accelerators - And So It Begins...
DYEAR=2009
DGENRE=Blues
TTITLE0=No Turning Back
TTITLE1=What Am I To Do
TTITLE2=Everybody
TTITLE3=Everyday I have The Blues
TTITLE4=If You Have To Know
TTITLE5=Couldn't Stand The Weather
EXTD=YEAR: 2009
EXTT0=
EXTT1=
EXTT2=
EXTT3=
EXTT4=
EXTT5=
PLAYORDER=
